<svg xmlns="http://www.w3.org/2000/svg" xmlns:xlink="http://www.w3.org/1999/xlink" width="28" height="28" viewBox="0 0 28 28">
    <defs>
        <path id="a" d="M0 0h15v15H0z"/>
    </defs>
    <g fill="none" fill-rule="evenodd">
        <rect width="27" height="27" x=".5" y=".5" stroke="#C2C2C2" rx="3"/>
        <g transform="translate(7 6)">
            <mask id="b" fill="#fff">
                <use xlink:href="#a"/>
            </mask>
            <path fill="#C2C2C2" d="M11.603 2.437a.814.814 0 0 0-.858.74.816.816 0 0 0 .776.874.82.82 0 0 0 .836-.768.817.817 0 0 0-.754-.846M7.5 9.927a2.43 2.43 0 0 0-.002-4.86A2.426 2.426 0 0 0 5.07 7.474a2.428 2.428 0 0 0 2.43 2.454m.018-6.074c1.991.008 3.628 1.657 3.624 3.652-.003 2.012-1.673 3.657-3.69 3.637-1.987-.02-3.611-1.68-3.597-3.678.014-1.991 1.666-3.62 3.663-3.611m.025-2.634c-1.214 0-2.428-.007-3.642.002-1.558.01-2.672 1.124-2.678 2.689-.009 2.395-.01 4.79 0 7.185.008 1.56 1.125 2.673 2.689 2.68 2.394.01 4.789.01 7.183 0 1.56-.008 2.672-1.126 2.679-2.69.01-2.396.01-4.79 0-7.186-.008-1.561-1.127-2.668-2.69-2.679-1.18-.007-2.36-.001-3.54-.001M7.508.003c1.198 0 2.396-.007 3.593.002 2.197.016 3.874 1.683 3.887 3.883.014 2.413.015 4.825 0 7.238-.015 2.17-1.69 3.847-3.857 3.862-2.412.017-4.824.015-7.236.001C1.694 14.977.021 13.304.01 11.105a634.035 634.035 0 0 1 0-7.237C.025 1.697 1.7.026 3.867.006 5.08-.006 6.295.004 7.509.003" mask="url(#b)"/>
        </g>
    </g>
</svg>
